<svg width="680" height="800" viewBox="0 0 680 800" xmlns="http://www.w3.org/2000/svg" role="img">
<title>Слайд 6: Семь благословений верующего</title>
<desc>Семь благословений, которые верующий получает во Христе</desc>
<defs>
  <linearGradient id="sky6" x1="0" y1="0" x2="0" y2="1">
    <stop offset="0%" stop-color="#EEF5FC"/>
    <stop offset="100%" stop-color="#D6E5F4"/>
  </linearGradient>
</defs>

<rect width="680" height="800" fill="url(#sky6)"/>

<circle cx="40" cy="30" r="1" fill="#1E4F8A" opacity="0.45"/>
<circle cx="640" cy="35" r="1.2" fill="#1E4F8A" opacity="0.45"/>
<circle cx="60" cy="55" r="0.8" fill="#1E4F8A" opacity="0.35"/>
<circle cx="618" cy="60" r="0.8" fill="#1E4F8A" opacity="0.35"/>
<circle cx="350" cy="22" r="0.9" fill="#C9A961" opacity="0.55"/>
<circle cx="200" cy="45" r="0.7" fill="#C9A961" opacity="0.45"/>
<circle cx="490" cy="40" r="0.7" fill="#C9A961" opacity="0.45"/>

<text x="340" y="55" text-anchor="middle" fill="#1E4F8A" font-size="13" letter-spacing="4" font-family="Georgia, serif" font-style="italic">ИН 1:12</text>
<text x="340" y="100" text-anchor="middle" fill="#0F2F5A" font-size="32" font-weight="500" letter-spacing="2" font-family="Georgia, serif">Семь благословений</text>

<line x1="250" y1="120" x2="335" y2="120" stroke="#C9A961" stroke-width="0.8"/>
<line x1="345" y1="120" x2="430" y2="120" stroke="#C9A961" stroke-width="0.8"/>
<circle cx="340" cy="120" r="2.5" fill="#C9A961"/>

<g transform="translate(340, 215)">
  <circle cx="0" cy="0" r="60" fill="#FFFFFF" opacity="0.25"/>
  <circle cx="0" cy="0" r="42" fill="#FCEBC4" opacity="0.45"/>
  <circle cx="0" cy="0" r="24" fill="#FFE08A" opacity="0.55"/>
  <circle cx="0" cy="0" r="50" fill="none" stroke="#C9A961" stroke-width="0.6" opacity="0.55"/>
  <line x1="0" y1="0" x2="0" y2="-46" stroke="#C9A961" stroke-width="0.5" opacity="0.45"/>
  <line x1="0" y1="0" x2="36" y2="-28.7" stroke="#C9A961" stroke-width="0.5" opacity="0.45"/>
  <line x1="0" y1="0" x2="44.9" y2="10.2" stroke="#C9A961" stroke-width="0.5" opacity="0.45"/>
  <line x1="0" y1="0" x2="19.9" y2="41.4" stroke="#C9A961" stroke-width="0.5" opacity="0.45"/>
  <line x1="0" y1="0" x2="-19.9" y2="41.4" stroke="#C9A961" stroke-width="0.5" opacity="0.45"/>
  <line x1="0" y1="0" x2="-44.9" y2="10.2" stroke="#C9A961" stroke-width="0.5" opacity="0.45"/>
  <line x1="0" y1="0" x2="-36" y2="-28.7" stroke="#C9A961" stroke-width="0.5" opacity="0.45"/>
  <circle cx="0" cy="-50" r="4" fill="#C9A961"/>
  <circle cx="39.1" cy="-31.2" r="4" fill="#C9A961"/>
  <circle cx="48.8" cy="11.1" r="4" fill="#C9A961"/>
  <circle cx="21.7" cy="45" r="4" fill="#C9A961"/>
  <circle cx="-21.7" cy="45" r="4" fill="#C9A961"/>
  <circle cx="-48.8" cy="11.1" r="4" fill="#C9A961"/>
  <circle cx="-39.1" cy="-31.2" r="4" fill="#C9A961"/>
  <text x="0" y="0" text-anchor="middle" dominant-baseline="central" fill="#0F2F5A" font-size="34" font-weight="500" font-family="Georgia, serif" font-style="italic">7</text>
</g>

<text x="340" y="305" text-anchor="middle" fill="#0F2F5A" font-size="11" font-style="italic" opacity="0.75" font-family="Georgia, serif">наследие во Христе</text>

<g transform="translate(60, 335)">
  <rect x="0" y="0" width="560" height="48" rx="6" fill="#FFFFFF" opacity="0.4"/>
  <circle cx="28" cy="24" r="13" fill="#1E4F8A"/>
  <text x="28" y="24" text-anchor="middle" dominant-baseline="central" fill="#FFFFFF" font-weight="500" font-size="13">1</text>
  <text x="60" y="29" fill="#0F2F5A" font-size="15" font-weight="500">Чадо Божье</text>
  <text x="540" y="29" text-anchor="end" fill="#3D7DB8" font-size="13" font-style="italic" font-family="Georgia, serif">Ин 1:12</text>

  <circle cx="28" cy="72" r="13" fill="#1E4F8A"/>
  <text x="28" y="72" text-anchor="middle" dominant-baseline="central" fill="#FFFFFF" font-weight="500" font-size="13">2</text>
  <text x="60" y="77" fill="#0F2F5A" font-size="15" font-weight="500">Святой Дух в нас</text>
  <text x="540" y="77" text-anchor="end" fill="#3D7DB8" font-size="13" font-style="italic" font-family="Georgia, serif">1 Кор 3:16</text>

  <rect x="0" y="96" width="560" height="48" rx="6" fill="#FFFFFF" opacity="0.4"/>
  <circle cx="28" cy="120" r="13" fill="#1E4F8A"/>
  <text x="28" y="120" text-anchor="middle" dominant-baseline="central" fill="#FFFFFF" font-weight="500" font-size="13">3</text>
  <text x="60" y="125" fill="#0F2F5A" font-size="15" font-weight="500">Ответы на молитвы</text>
  <text x="540" y="125" text-anchor="end" fill="#3D7DB8" font-size="13" font-style="italic" font-family="Georgia, serif">Ин 14:14</text>

  <circle cx="28" cy="168" r="13" fill="#1E4F8A"/>
  <text x="28" y="168" text-anchor="middle" dominant-baseline="central" fill="#FFFFFF" font-weight="500" font-size="13">4</text>
  <text x="60" y="173" fill="#0F2F5A" font-size="15" font-weight="500">Служение ангелов</text>
  <text x="540" y="173" text-anchor="end" fill="#3D7DB8" font-size="13" font-style="italic" font-family="Georgia, serif">Евр 1:14</text>

  <rect x="0" y="192" width="560" height="48" rx="6" fill="#FFFFFF" opacity="0.4"/>
  <circle cx="28" cy="216" r="13" fill="#1E4F8A"/>
  <text x="28" y="216" text-anchor="middle" dominant-baseline="central" fill="#FFFFFF" font-weight="500" font-size="13">5</text>
  <text x="60" y="221" fill="#0F2F5A" font-size="15" font-weight="500">Власть в духовном мире</text>
  <text x="540" y="221" text-anchor="end" fill="#3D7DB8" font-size="13" font-style="italic" font-family="Georgia, serif">Лк 10:19</text>

  <circle cx="28" cy="264" r="13" fill="#1E4F8A"/>
  <text x="28" y="264" text-anchor="middle" dominant-baseline="central" fill="#FFFFFF" font-weight="500" font-size="13">6</text>
  <text x="60" y="269" fill="#0F2F5A" font-size="15" font-weight="500">Жительство на небесах</text>
  <text x="540" y="269" text-anchor="end" fill="#3D7DB8" font-size="13" font-style="italic" font-family="Georgia, serif">Флп 3:20</text>

  <rect x="0" y="288" width="560" height="48" rx="6" fill="#FFFFFF" opacity="0.4"/>
  <circle cx="28" cy="312" r="13" fill="#1E4F8A"/>
  <text x="28" y="312" text-anchor="middle" dominant-baseline="central" fill="#FFFFFF" font-weight="500" font-size="13">7</text>
  <text x="60" y="317" fill="#0F2F5A" font-size="15" font-weight="500">Цель от Бога</text>
  <text x="540" y="317" text-anchor="end" fill="#3D7DB8" font-size="13" font-style="italic" font-family="Georgia, serif">Мф 28:18-20</text>
</g>

<line x1="180" y1="710" x2="320" y2="710" stroke="#C9A961" stroke-width="0.6" opacity="0.7"/>
<line x1="360" y1="710" x2="500" y2="710" stroke="#C9A961" stroke-width="0.6" opacity="0.7"/>
<circle cx="340" cy="710" r="2.5" fill="#C9A961"/>

<text x="340" y="750" text-anchor="middle" fill="#0F2F5A" font-size="15" font-weight="500" font-family="Georgia, serif">Принят · Поселён · Вооружён · Направлен</text>
<text x="340" y="775" text-anchor="middle" fill="#3D7DB8" font-size="12" font-style="italic" font-family="Georgia, serif">не заслуга — наследие</text>

</svg>
